<?xml version="1.0" encoding="UTF-8" standalone="no"?>
<svg
   version="1.1"
   x="0px"
   y="0px"
   viewBox="0 0 309.79999 126.4"
   width="309.79999"
   height="126.4"
   xmlns="http://www.w3.org/2000/svg"
   xmlns:svg="http://www.w3.org/2000/svg">
<style
   type="text/css"
   >
	.st0{fill:#D0DF00;}
	.st1{fill:#333D48;}
</style>
<path
   class="st0"
   d="m 43.4,126.4 h -9.6 c -5.5,0 -10.2,-2 -14.1,-5.9 -3.9,-3.9 -5.9,-8.6 -5.9,-14.1 v -26 c 0,-3.3 -1.2,-6.2 -3.6,-8.7 C 7.9,69.3 5,68.1 1.7,68.1 H 0 V 57.7 h 1.6 c 3.3,0 6.2,-1.2 8.6,-3.6 2.4,-2.5 3.6,-5.4 3.6,-8.7 V 20 c 0,-5.5 2,-10.2 5.9,-14.1 C 23.6,2 28.3,0 33.8,0 h 9.6 v 9 h -9.6 c -2.7,0 -5,1 -6.9,2.9 -1.9,1.9 -2.8,4.2 -2.8,6.9 v 26.4 c 0,4 -1.1,7.7 -3.3,11 -2.3,3.6 -5.4,5.8 -9.1,6.7 4,1.4 7.2,3.7 9.4,7 2,3.2 3,6.7 3,10.6 v 27.1 c 0,2.7 0.9,5 2.8,6.9 2,1.9 4.3,2.8 6.9,2.8 h 9.6 z"
    /><path
   class="st1"
   d="m 79.2,76.9 c 0,3.7 -1.3,6.8 -3.9,9.4 -2.6,2.6 -5.7,3.9 -9.3,3.9 H 52.8 V 36 H 66 c 3.6,0 6.7,1.3 9.3,3.9 2.6,2.6 3.9,5.8 3.9,9.4 z M 71,82.8 c 1.4,-1.5 2.1,-3.2 2.1,-5.1 v -29 c 0,-1.9 -0.7,-3.6 -2.1,-5.1 -1.4,-1.4 -3.1,-2.1 -5.1,-2.1 h -7.1 v 43.4 h 7.1 c 2.1,0 3.7,-0.7 5.1,-2.1 z"
    /><path
   class="st1"
   d="M 117.3,70.6 H 97 v 7.7 c 0,2 0.7,3.7 2.1,5.1 1.4,1.4 3.1,2.1 5.1,2.1 3.8,0 6.6,-1.7 8.3,-5.2 l 4.6,3.2 c -3.1,4.9 -7.4,7.4 -12.9,7.4 -3.7,0 -6.8,-1.3 -9.3,-3.9 C 92.3,84.4 91,81.2 91,77.5 V 61.2 c 0,-3.7 1.3,-6.9 3.9,-9.4 2.6,-2.6 5.7,-3.9 9.3,-3.9 3.6,0 6.7,1.3 9.3,3.9 2.6,2.6 3.9,5.8 3.9,9.4 v 9.4 z m -6.1,-5.4 v -4.7 c 0,-1.9 -0.7,-3.6 -2.1,-5.1 -1.4,-1.4 -3.1,-2.1 -5,-2.1 -2,0 -3.7,0.7 -5.1,2.1 -1.4,1.4 -2.1,3.1 -2.1,5.1 v 4.7 z"
    /><path
   class="st1"
   d="m 158.6,48.6 -12.8,41.6 h -6.2 L 126.9,48.6 h 6.3 l 9.6,33.4 9.6,-33.4 z"
    /><path
   class="st1"
   d="M 194.6,90.2 H 168.3 V 82.3 L 188,41.4 H 168.3 V 36 h 26.3 v 5.7 l -20.7,43.1 h 20.7 z"
    /><path
   class="st1"
   d="m 232.3,77.6 c 0,3.7 -1.3,6.8 -3.9,9.4 -2.6,2.6 -5.7,3.9 -9.3,3.9 -3.7,0 -6.8,-1.3 -9.3,-3.9 -2.6,-2.6 -3.9,-5.7 -3.9,-9.4 V 61.3 c 0,-3.7 1.3,-6.9 3.9,-9.4 2.6,-2.6 5.7,-3.9 9.3,-3.9 3.6,0 6.7,1.3 9.3,3.9 2.6,2.6 3.9,5.8 3.9,9.4 z m -8.1,5.9 c 1.4,-1.4 2.1,-3.1 2.1,-5.1 V 60.6 c 0,-2 -0.7,-3.7 -2.1,-5.1 -1.4,-1.4 -3.1,-2.1 -5,-2.1 -2,0 -3.6,0.7 -5.1,2.1 -1.5,1.4 -2.1,3.1 -2.1,5.1 v 17.8 c 0,2 0.7,3.7 2.1,5.1 1.4,1.4 3.1,2.1 5.1,2.1 2,0 3.6,-0.7 5,-2.1 z"
    /><path
   class="st1"
   d="m 271,90.2 h -6 V 60.6 c 0,-2 -0.5,-3.7 -1.6,-5.1 -1.1,-1.4 -2.7,-2.1 -4.5,-2.1 -3.3,0 -6.1,1.5 -8.2,4.5 v 32.3 h -6 V 48.6 h 6 v 4.7 c 2.5,-3.5 5.8,-5.2 9.7,-5.2 3,0 5.5,1.1 7.6,3.3 2.1,2.3 3.1,5.2 3.1,8.9 v 29.9 z"
    /><path
   class="st1"
   d="m 309.7,70.6 h -20.3 v 7.7 c 0,2 0.7,3.7 2.1,5.1 1.4,1.4 3.1,2.1 5.1,2.1 3.8,0 6.6,-1.7 8.3,-5.2 l 4.6,3.2 c -3.1,4.9 -7.4,7.4 -12.9,7.4 -3.7,0 -6.8,-1.3 -9.3,-3.9 -2.6,-2.6 -3.9,-5.8 -3.9,-9.5 V 61.2 c 0,-3.7 1.3,-6.9 3.9,-9.4 2.6,-2.6 5.7,-3.9 9.3,-3.9 3.6,0 6.7,1.3 9.3,3.9 2.6,2.6 3.9,5.8 3.9,9.4 v 9.4 z m -6.1,-5.4 v -4.7 c 0,-1.9 -0.7,-3.6 -2.1,-5.1 -1.4,-1.4 -3.1,-2.1 -5,-2.1 -2,0 -3.7,0.7 -5.1,2.1 -1.4,1.4 -2.1,3.1 -2.1,5.1 v 4.7 z"
    />
</svg>
