<?xml version="1.0" encoding="UTF-8" standalone="no"?>
<!-- Created with Inkscape (http://www.inkscape.org/) -->

<svg
   version="1.1"
   id="svg2"
   width="412.85599"
   height="168.508"
   viewBox="0 0 412.85599 168.508"
   xmlns="http://www.w3.org/2000/svg"
   xmlns:svg="http://www.w3.org/2000/svg">
  <defs
     id="defs6" />
  <g
     id="g316">
    <g
       id="g314">
      <path
         d="m 404.81199,86.924665 v -6.249333 c 0,-2.584 -0.936,-4.844 -2.80666,-6.781334 -1.84134,-1.906666 -4.06934,-2.86 -6.68667,-2.86 -2.648,0 -4.89333,0.953334 -6.73467,2.86 -1.872,1.873334 -2.80933,4.132 -2.80933,6.781334 v 6.249333 z m 8.044,7.217333 H 385.82533 V 104.41 c 0,2.71333 0.93466,4.98933 2.808,6.83066 1.84133,1.87467 4.08533,2.81067 6.73333,2.81067 5.10267,0 8.80133,-2.308 11.09333,-6.928 l 6.10267,4.264 c -4.132,6.556 -9.88133,9.83333 -17.244,9.83333 -4.876,0 -9.02667,-1.72533 -12.448,-5.18266 -3.424,-3.45467 -5.13867,-7.67067 -5.13867,-12.644 V 81.644665 c 0,-4.941333 1.71467,-9.138667 5.13867,-12.596 3.45467,-3.486666 7.604,-5.232 12.448,-5.232 4.84533,0 8.97733,1.745334 12.40133,5.232 3.424,3.52 5.136,7.718667 5.136,12.596 z"
         style="fill:#333d48;fill-opacity:1;fill-rule:nonzero;stroke:none;stroke-width:1.33333"
         id="path312" />
    </g>
  </g>
  <path
     d="m 125.4102,81.1973 h -9.631 c -5.516,0 -10.227,1.955 -14.138,5.865 -3.911,3.91 -5.866,8.623 -5.866,14.138 v 25.993 c 0,3.333 -1.194,6.235 -3.581,8.704 -2.345,2.429 -5.185,3.643 -8.519,3.643 h -1.667 v 10.374 h 1.606 c 3.333,0 6.192,1.192 8.58,3.581 2.387,2.469 3.581,5.37 3.581,8.704 v 25.374 c 0,5.517 1.955,10.228 5.866,14.14 3.911,3.908 8.622,5.865 14.138,5.865 h 9.631 v -9.014 h -9.631 c -2.676,0 -4.981,-0.968 -6.914,-2.903 -1.895,-1.893 -2.84,-4.177 -2.84,-6.852 v -26.364 c 0,-4.033 -1.092,-7.696 -3.273,-10.988 -2.346,-3.581 -5.393,-5.825 -9.137,-6.73 4.033,-1.358 7.162,-3.704 9.383,-7.039 2.018,-3.21 3.027,-6.75 3.027,-10.618 v -27.103 c 0,-2.677 0.945,-4.981 2.84,-6.916 1.975,-1.892 4.279,-2.839 6.914,-2.839 h 9.631 z"
     style="fill:#d0df00;fill-opacity:1;fill-rule:nonzero;stroke:none"
     id="path22"
     clip-path="none"
     transform="matrix(1.3333333,0,0,-1.3333333,-109.34426,276.77106)" />
  <path
     d="m 153.0469,124.8379 c 1.404,1.453 2.108,3.16 2.108,5.123 v 28.955 c 0,1.937 -0.704,3.634 -2.108,5.087 -1.429,1.429 -3.113,2.144 -5.05,2.144 h -7.12 v -43.416 h 7.12 c 1.962,0 3.645,0.702 5.05,2.107 m 8.174,5.886 c 0,-3.657 -1.296,-6.808 -3.887,-9.448 -2.568,-2.616 -5.668,-3.922 -9.3,-3.922 h -13.19 v 54.169 h 13.19 c 3.632,0 6.732,-1.308 9.3,-3.923 2.591,-2.642 3.887,-5.789 3.887,-9.447 z"
     style="fill:#333d48;fill-opacity:1;fill-rule:nonzero;stroke:none"
     id="path26"
     clip-path="none"
     transform="matrix(1.3333333,0,0,-1.3333333,-109.34426,276.77106)" />
  <path
     d="m 193.2266,142.3848 v 4.687 c 0,1.938 -0.703,3.633 -2.106,5.086 -1.381,1.43 -3.052,2.145 -5.014,2.145 -1.987,0 -3.67,-0.715 -5.051,-2.145 -1.405,-1.405 -2.107,-3.099 -2.107,-5.086 v -4.687 z m 6.033,-5.413 h -20.273 v -7.701 c 0,-2.035 0.7,-3.742 2.106,-5.123 1.381,-1.406 3.063,-2.108 5.05,-2.108 3.827,0 6.601,1.731 8.32,5.196 l 4.577,-3.198 c -3.1,-4.917 -7.411,-7.375 -12.933,-7.375 -3.658,0 -6.77,1.294 -9.337,3.887 -2.568,2.591 -3.853,5.753 -3.853,9.483 v 16.312 c 0,3.706 1.285,6.854 3.853,9.447 2.591,2.615 5.704,3.924 9.337,3.924 3.633,0 6.733,-1.309 9.3,-3.924 2.569,-2.64 3.853,-5.789 3.853,-9.447 z"
     style="fill:#333d48;fill-opacity:1;fill-rule:nonzero;stroke:none"
     id="path30"
     clip-path="none"
     transform="matrix(1.3333333,0,0,-1.3333333,-109.34426,276.77106)" />
  <path
     d="m 240.5996,158.9883 -12.752,-41.635 -6.176,0.036 -12.753,41.636 h 6.285 l 9.556,-33.425 9.555,33.388 z"
     style="fill:#333d48;fill-opacity:1;fill-rule:nonzero;stroke:none"
     id="path34"
     clip-path="none"
     transform="matrix(1.3333333,0,0,-1.3333333,-109.34426,276.77106)" />
  <path
     d="m 276.5664,117.3535 h -26.342 v 7.919 l 19.73,40.874 h -19.73 v 5.376 h 26.342 v -5.667 l -20.71,-43.125 h 20.71 z"
     style="fill:#333d48;fill-opacity:1;fill-rule:nonzero;stroke:none"
     id="path38"
     clip-path="none"
     transform="matrix(1.3333333,0,0,-1.3333333,-109.34426,276.77106)" />
  <path
     d="m 306.2041,124.1475 c 1.403,1.403 2.106,3.112 2.106,5.123 v 17.801 c 0,1.963 -0.703,3.67 -2.106,5.123 -1.405,1.405 -3.077,2.108 -5.014,2.108 -1.963,0 -3.646,-0.703 -5.05,-2.108 -1.406,-1.404 -2.108,-3.111 -2.108,-5.123 v -17.801 c 0,-2.035 0.702,-3.742 2.108,-5.123 1.38,-1.405 3.063,-2.107 5.05,-2.107 1.962,0 3.633,0.702 5.014,2.107 m 8.139,5.85 c 0,-3.684 -1.285,-6.832 -3.853,-9.448 -2.566,-2.592 -5.667,-3.886 -9.3,-3.886 -3.658,0 -6.77,1.294 -9.337,3.886 -2.568,2.567 -3.852,5.715 -3.852,9.448 v 16.347 c 0,3.706 1.284,6.855 3.852,9.448 2.591,2.615 5.704,3.923 9.337,3.923 3.633,0 6.734,-1.308 9.3,-3.923 2.568,-2.641 3.853,-5.79 3.853,-9.448 z"
     style="fill:#333d48;fill-opacity:1;fill-rule:nonzero;stroke:none"
     id="path42"
     clip-path="none"
     transform="matrix(1.3333333,0,0,-1.3333333,-109.34426,276.77106)" />
  <path
     d="m 353.0322,117.3535 h -6.031 v 29.609 c 0,2.036 -0.522,3.718 -1.564,5.051 -1.137,1.429 -2.651,2.144 -4.542,2.144 -3.317,0 -6.054,-1.514 -8.211,-4.541 v -32.263 h -6.031 v 41.635 h 6.031 v -4.65 c 2.544,3.489 5.778,5.232 9.702,5.232 2.955,0 5.472,-1.115 7.556,-3.344 2.06,-2.252 3.09,-5.22 3.09,-8.899 z"
     style="fill:#333d48;fill-opacity:1;fill-rule:nonzero;stroke:none"
     id="path46"
     clip-path="none"
     transform="matrix(1.3333333,0,0,-1.3333333,-109.34426,276.77106)" />
</svg>
