<?xml version="1.0" encoding="utf-8"?>
<!-- Generator: Adobe Illustrator 26.0.2, SVG Export Plug-In . SVG Version: 6.00 Build 0)  -->
<svg version="1.1" id="Layer_1" xmlns="http://www.w3.org/2000/svg" xmlns:xlink="http://www.w3.org/1999/xlink" x="0px" y="0px"
	 viewBox="0 0 212.2 212.2" style="enable-background:new 0 0 212.2 212.2;" xml:space="preserve">
<style type="text/css">
	.st0{fill:#FFFFFF;}
	.st1{fill:none;}
	.st2{fill:#81CADF;}
	.st3{fill:#60BDD8;}
	.st4{fill:#94D1E3;}
	.st5{fill:#00A9CE;}
</style>
<rect class="st0" width="212.2" height="212.2"/>
<polygon class="st1" points="106.1,71.5 106.1,71.5 106.1,71.5 "/>
<path class="st2" d="M123.7,42.3c0,0-0.1,0-0.1,0.1c-0.2,0.1-0.3,0.2-0.5,0.3L106.7,52l19,11V41.8C125,41.8,124.3,42,123.7,42.3z"/>
<path class="st3" d="M90.2,108.5l17.3-10l-19-11l0,21.5C89,109,89.6,108.8,90.2,108.5z"/>
<path class="st4" d="M145.2,97.3l-39-22.5h0l-1.8-1.1L69.2,53.4c-0.2,0.6-0.4,1.3-0.4,2c0,0.2,0,0.3,0,0.5v40.3
	c0,1.3,0.7,2.5,1.8,3.1l16.1,9.4c0.5,0.3,1.2,0.4,1.8,0.4l0-20.7l0-0.8l36.4,21c0.1,0.1,0.2,0.1,0.3,0.2c0,0,0.1,0,0.1,0
	c1,0.4,1.9,0.1,2.9-0.5l6.1-3.5l9.7-5.8C144.5,98.5,144.9,97.9,145.2,97.3z"/>
<path class="st5" d="M145.4,70.7V55.4c0-2-1.1-3.8-2.8-4.7l-14.1-8.2c-0.9-0.5-1.8-0.7-2.7-0.7v21.2L93.9,44.6l-3.5-2
	c-1.5-0.9-2.9-0.9-4.5-0.2c0,0-0.1,0-0.1,0.1c-0.2,0.1-0.4,0.2-0.5,0.3L79.6,46l-8,4.7c0,0,0,0,0,0c-1.1,0.6-1.9,1.6-2.4,2.7
	c0,0,35.2,20.3,35.2,20.3l1.8,1.1h0l39,22.5c0.2-0.7,0.2-2.1,0.2-2.1L145.4,70.7L145.4,70.7z"/>
<g>
	<path d="M66.1,170.2h-1.8l-0.9-6.1h0l-1.8,4.7h-1.3l-1.8-4.7h0l-0.9,6.1h-1.8l1.7-9.5h1.3L61,166h0l2.2-5.4h1.3L66.1,170.2z"/>
	<path d="M58.3,153.9h-4.4l-12.5-17.6h0v17.6h-4.7v-25.7h4.4l12.5,17.6h0v-17.6h4.7L58.3,153.9z"/>
	<path d="M89.8,141.1c0,8-5.8,13.4-13.4,13.4c-7.6,0-13.4-5.4-13.4-13.4c0-8,5.8-13.4,13.4-13.4C84,127.7,89.8,133.1,89.8,141.1z
		 M68.1,141.1c0,5.1,3.5,8.6,8.3,8.6c4.8,0,8.3-3.5,8.3-8.6s-3.4-8.6-8.3-8.6C71.6,132.5,68.1,136,68.1,141.1z"/>
	<path d="M101.4,143.7h-1.8v10.2h-4.7v-25.7h9.4c5.1,0,8.3,3.2,8.3,7.8c0,3.8-2.2,6.7-6,7.4l7.6,10.4h-5.9L101.4,143.7z M99.6,139.6
		h4c2.7,0,4-1.3,4-3.4c0-2.1-1.3-3.5-4-3.5h-4V139.6z"/>
	<path d="M139.8,141.1c0,8-5.6,12.8-13.3,12.8h-8.2v-25.7h8.2C134.2,128.3,139.8,133.1,139.8,141.1z M122.9,132.6v17h3.7
		c4.6,0,8.1-3,8.1-8.5c0-5.5-3.4-8.5-8.1-8.5L122.9,132.6z"/>
	<path d="M149.5,153.9h-4.7v-25.7h4.7V153.9z"/>
	<path d="M154.6,141.1c0-8.1,5.8-13.4,13.8-13.4c4,0,6.9,1.2,9.2,2.8l-2.7,4.1c-1.6-1.1-3.7-2.1-6.5-2.1c-5,0-8.7,3.3-8.7,8.6
		s3.7,8.6,8.7,8.6c2.7,0,4.9-1,6.5-2.1l2.7,4.1c-2.3,1.6-5.2,2.8-9.2,2.8C160.3,154.5,154.6,149.2,154.6,141.1z"/>
	<path d="M36.1,169.5l0.8-1.6c0.8,0.4,1.7,0.8,2.6,0.8c0.9,0,1.3-0.4,1.3-1c0-0.5-0.4-0.8-1-1.2l-1.5-1.1c-1-0.7-1.5-1.5-1.5-2.5
		c0-1.5,1-2.4,2.8-2.4c0.9,0,1.9,0.3,2.8,0.7l-0.7,1.6c-0.7-0.4-1.4-0.6-2-0.6c-0.7,0-1,0.3-1,0.7c0,0.4,0.2,0.6,0.7,1L41,165
		c1.1,0.7,1.6,1.5,1.6,2.7c0,1.8-1.2,2.7-3.2,2.7C38.2,170.4,37,170,36.1,169.5"/>
	<path d="M52.1,168.6v1.6h-5.7v-9.5h5.6v1.6h-3.9v1.9h3.6v1.6h-3.6v2.7H52.1z"/>
	<path d="M71.8,170.2H70v-9.5h1.8V170.2z"/>
	<path d="M71.8,170.2H70v-9.5h1.8V170.2z"/>
	<path d="M75.3,165.4c0-3,2.1-4.9,5.1-4.9c1.5,0,2.5,0.4,3.4,1l-1,1.5c-0.6-0.4-1.4-0.8-2.4-0.8c-1.8,0-3.2,1.2-3.2,3.2
		c0,1.9,1.4,3.2,3.2,3.2c1,0,1.8-0.4,2.4-0.8l1,1.5c-0.9,0.6-1.9,1-3.4,1C77.4,170.4,75.3,168.4,75.3,165.4z"/>
	<path d="M96.6,165.4c0,2.9-2.2,4.9-5,4.9s-5-2-5-4.9c0-2.9,2.1-4.9,5-4.9S96.6,162.5,96.6,165.4z M88.6,165.4
		c0,1.9,1.3,3.2,3.1,3.2c1.8,0,3.1-1.3,3.1-3.2c0-1.9-1.3-3.2-3.1-3.2C89.9,162.3,88.6,163.5,88.6,165.4z"/>
	<path d="M108.2,170.2h-1.6l-4.6-6.5h0v6.5h-1.7v-9.5h1.6l4.6,6.5h0v-6.5h1.7V170.2z"/>
	<path d="M120.5,165.4c0,3-2.1,4.7-4.9,4.7h-3v-9.5h3C118.4,160.7,120.5,162.4,120.5,165.4z M114.3,162.3v6.3h1.4c1.7,0,3-1.1,3-3.1
		s-1.3-3.1-3-3.1H114.3L114.3,162.3z"/>
	<path d="M132,166.4c0,2.4-1.4,3.9-3.9,3.9c-2.5,0-3.9-1.5-3.9-3.9v-5.7h1.8v5.6c0,1.4,0.8,2.3,2.1,2.3c1.3,0,2.1-0.9,2.1-2.3v-5.6
		h1.8V166.4z"/>
	<path d="M135.6,165.4c0-3,2.1-4.9,5.1-4.9c1.5,0,2.5,0.4,3.4,1l-1,1.5c-0.6-0.4-1.4-0.8-2.4-0.8c-1.8,0-3.2,1.2-3.2,3.2
		c0,1.9,1.4,3.2,3.2,3.2c1,0,1.8-0.4,2.4-0.8l1,1.5c-0.9,0.6-1.9,1-3.4,1C137.7,170.4,135.6,168.4,135.6,165.4z"/>
	<path d="M153.8,162.3h-2.6v7.9h-1.7v-7.9h-2.6v-1.6h6.9L153.8,162.3L153.8,162.3z"/>
	<path d="M166.4,165.4c0,2.9-2.2,4.9-5,4.9s-5-2-5-4.9s2.1-4.9,5-4.9S166.4,162.5,166.4,165.4z M158.4,165.4c0,1.9,1.3,3.2,3.1,3.2
		c1.8,0,3.1-1.3,3.1-3.2s-1.3-3.2-3.1-3.2C159.7,162.2,158.4,163.5,158.4,165.4z"/>
	<path d="M172.4,166.4h-0.7v3.8H170v-9.5h3.5c1.9,0,3.1,1.2,3.1,2.9c0,1.4-0.8,2.5-2.2,2.7l2.8,3.9h-2.2L172.4,166.4z M171.7,164.8
		h1.5c1,0,1.5-0.5,1.5-1.3c0-0.8-0.5-1.3-1.5-1.3h-1.5V164.8z"/>
	<g>
		<g>
			<g>
				<g>
					<path d="M182.8,131.4v1.3h-0.3v-3h1.3c0.6,0,1,0.2,1,0.8c0,0.3-0.2,0.6-0.6,0.7c0.2,0.1,0.5,0.2,0.5,0.7v0.1c0,0.2,0,0.5,0,0.6
						h-0.3c0-0.1,0-0.4,0-0.6v-0.1c0-0.5-0.2-0.7-0.8-0.7L182.8,131.4z M182.8,131.2h1c0.5,0,0.8-0.2,0.8-0.6c0-0.4-0.3-0.5-0.8-0.5
						h-1L182.8,131.2L182.8,131.2z"/>
					<path d="M184.9,132.9h-0.4l0-0.1c0-0.1,0-0.3,0-0.5v-0.2c0-0.5-0.1-0.6-0.7-0.6h-0.8v1.3h-0.4v-3.1h1.4c0.7,0,1.1,0.3,1.1,0.9
						c0,0.3-0.1,0.6-0.4,0.7c0.2,0.1,0.3,0.4,0.3,0.7v0.1c0,0.2,0,0.5,0,0.6L184.9,132.9z M184.6,132.7h0.1c0-0.1,0-0.3,0-0.5V132
						c0-0.5-0.2-0.6-0.4-0.7l-0.3-0.1l0.3-0.1c0.3-0.1,0.5-0.3,0.5-0.6c0-0.6-0.6-0.7-0.9-0.7h-1.2v2.8h0.1v-1.3h1
						c0.5,0,0.9,0.1,0.9,0.7v0.2C184.6,132.5,184.6,132.6,184.6,132.7z M183.8,131.3h-1.1V130h1.1c0.7,0,0.9,0.3,0.9,0.6
						C184.7,131.1,184.4,131.3,183.8,131.3z M182.9,131.1h0.9c0.6,0,0.7-0.3,0.7-0.5c0-0.1,0-0.5-0.7-0.5h-0.9V131.1z"/>
				</g>
			</g>
			<g>
				<g>
					<path d="M183.7,134.1c-1.5,0-2.8-1.3-2.8-2.8s1.3-2.8,2.8-2.8s2.8,1.3,2.8,2.8C186.5,132.8,185.2,134.1,183.7,134.1z
						 M183.7,128.7c-1.4,0-2.5,1.1-2.5,2.5c0,1.4,1.1,2.5,2.5,2.5c1.4,0,2.5-1.1,2.5-2.5C186.2,129.8,185.1,128.7,183.7,128.7z"/>
					<path d="M183.7,134.1c-1.6,0-2.9-1.3-2.9-2.9c0-1.6,1.3-2.9,2.9-2.9c1.6,0,2.9,1.3,2.9,2.9
						C186.5,132.8,185.2,134.1,183.7,134.1z M183.7,128.5c-1.5,0-2.7,1.2-2.7,2.7s1.2,2.7,2.7,2.7c1.5,0,2.7-1.2,2.7-2.7
						C186.4,129.7,185.2,128.5,183.7,128.5z M183.7,133.9c-1.4,0-2.6-1.2-2.6-2.6s1.2-2.6,2.6-2.6s2.6,1.2,2.6,2.6
						S185.1,133.9,183.7,133.9z M183.7,128.8c-1.4,0-2.5,1.1-2.5,2.5s1.1,2.5,2.5,2.5s2.5-1.1,2.5-2.5S185,128.8,183.7,128.8z"/>
				</g>
			</g>
		</g>
	</g>
</g>
</svg>
