<?xml version="1.0" encoding="UTF-8"?><svg id="Layer_1" xmlns="http://www.w3.org/2000/svg" viewBox="0 0 154.9 155"><defs><style>.cls-1{fill:none;}.cls-1,.cls-2,.cls-3{stroke:#fff;stroke-linecap:round;stroke-linejoin:round;}.cls-1,.cls-3{stroke-width:6.67px;}.cls-2{stroke-width:6.23px;}.cls-2,.cls-3{fill:#fff;}.cls-4{fill:#00a9ce;stroke-width:0px;}</style></defs><path class="cls-4" d="m8.82,155C3.94,155,0,151.06,0,146.18V8.92C0,4.04,3.94.1,8.82.1h137.26c4.88,0,8.82,3.94,8.82,8.82v137.26c0,4.88-3.94,8.82-8.82,8.82H8.82Z"/><line class="cls-2" x1="34.99" y1="105.25" x2="51.34" y2="105.25"/><line class="cls-2" x1="29.13" y1="89.55" x2="45.48" y2="89.55"/><line class="cls-2" x1="29.13" y1="73.85" x2="45.48" y2="73.85"/><line class="cls-2" x1="34.99" y1="58.16" x2="51.34" y2="58.16"/><line class="cls-3" x1="91.86" y1="46.94" x2="91.86" y2="38.97"/><line class="cls-3" x1="116.26" y1="56.79" x2="121.9" y2="51.15"/><line class="cls-1" x1="82.85" y1="36.46" x2="100.87" y2="36.46"/><circle class="cls-1" cx="91.86" cy="81.7" r="33.91"/><polyline class="cls-1" points="104.77 71.06 87.22 88.6 77.4 78.88"/></svg>