<?xml version="1.0" encoding="utf-8"?>
<!-- Generator: Adobe Illustrator 26.2.1, SVG Export Plug-In . SVG Version: 6.00 Build 0)  -->
<svg version="1.1" xmlns="http://www.w3.org/2000/svg" xmlns:xlink="http://www.w3.org/1999/xlink" x="0px" y="0px"
	 viewBox="0 0 2402.3 600" style="enable-background:new 0 0 2402.3 600;" xml:space="preserve">
<style type="text/css">
	.st0{display:none;}
	.st1{fill:#2AA89B;}
	.st2{fill:#808080;}
	.st3{fill:#FF9900;}
</style>
<g id="background" class="st0">
</g>
<g id="white">
</g>
<g id="text">
</g>
<g id="Layer_6">
	<g>
		<polygon class="st1" points="0,260.1 0,589.7 98.9,589.7 98.9,215.4 		"/>
		<polygon class="st1" points="0,12.8 0,154.3 98.9,109.6 98.9,12.8 		"/>
		<g>
			<path class="st2" d="M517.8,588.5L517.8,588.5c0,0-0.1,0-0.1,0H517.8z"/>
			<g>
				<path class="st3" d="M488.3,181.3c0,19.2-6.7,35.6-20.2,49c-13.5,13.5-29.8,20.2-49,20.2H281.6V110.4h137.5
					c19.2,0,35.6,6.7,49,20.2c13.5,13.5,20.2,29.8,20.2,49V181.3z M607.8,339.6c-13.2-24.2-30.8-43.9-52.8-59.3
					c9.9-13.7,17.7-29,23.5-45.7c5.8-16.8,8.7-34.5,8.7-53.1v-1.7c0-23.1-4.4-44.8-13.2-65.1c-8.8-20.3-20.8-38.2-35.9-53.6
					c-15.1-15.4-33-27.5-53.6-36.3c-20.6-8.8-42.4-13.2-65.5-13.2H182.7v576.9h98.9v-239h177.9c19.2,0,35.6,6.7,49.1,20.2
					c13.4,13.5,20.2,29.8,20.2,49v1.7c0,19.3-6.7,35.6-20.2,49c-13.5,13.5-29.8,20.2-49.1,20.2H388l44.7,98.9h26.9
					c23,0,44.7-4.4,65-13.2c20.3-8.8,38.2-20.7,53.6-35.8c15.4-15.1,27.5-33,36.3-53.6c8.8-20.6,13.2-42.4,13.2-65.5v-1.7
					C627.6,390.1,621,363.8,607.8,339.6"/>
			</g>
		</g>
		<polygon class="st1" points="914.5,11.5 1175.8,589.3 1281.3,589.3 1020,11.5 		"/>
		<polygon class="st1" points="659,589.3 767.1,589.3 921,246.9 867,127.9 		"/>
		<polygon class="st1" points="873.7,589.3 981.8,589.3 1026.9,488.8 972.9,369.3 		"/>
		<g>
			<path class="st3" d="M1648.9,300c-12.1-8.2-24.3-15.4-36.7-21.4s-23.8-11.2-34.2-15.7c-10.5-4.4-19.5-7.7-27.2-9.9
				c-7.7-2.2-12.9-3.8-15.7-4.9l-9.9-2.5c-9.9-2.7-20.6-5.8-32.2-9c-11.5-3.3-22.5-7.7-33-13.2c-12.7-6.6-22.5-14-29.7-22.3
				c-9.9-10.4-14.8-23.1-14.8-37.9c0-24.2,12.1-43.7,36.3-58.5c8.2-4.4,17.9-8,28.8-10.7c11-2.7,22-4.1,33-4.1
				c25.3,0,49.4,5.5,72.5,16.5c15.4,7.7,30.5,19,45.3,33.8l70.1-70.9c-4.4-3.8-9.5-8.1-15.2-12.8c-5.8-4.7-12.8-9.5-21-14.4
				c-15.9-9.3-37.4-18.7-64.3-28c-26.9-9.3-60.1-14-99.7-14c-21.4,0-43.3,3-65.5,9.1c-22.3,6-42.4,16.1-60.6,30.1
				c-18.1,14-32.8,32.1-44.1,54.4c-11.3,22.3-16.9,49.6-16.9,82c0,48.9,25,90.1,75,123.6c21.4,14.3,43,25.6,64.7,33.8
				c21.7,8.2,38.3,14,49.9,17.3c2.2,1.1,3.8,1.7,4.9,1.7c1.7,1.1,3.6,1.8,5.8,2.1c2.2,0.3,4.7,1,7.4,2c8.8,2.8,18.7,5.8,29.6,9.1
				c11,3.3,21.4,7.7,31.3,13.2c12.1,5.5,22,12.7,29.7,21.4c9.9,11,14.8,23.4,14.8,37.1c0,22.5-9.4,40.7-28,54.4
				c-8.8,6-19.1,10.9-30.9,14.4c-11.8,3.6-24.9,5.4-39.2,5.4c-7.7,0-17.6-0.8-29.7-2.5c-12.1-1.7-25-5.2-38.7-10.7
				c-22.5-8.8-42.9-21.4-61-37.9l-68.4,68.4c23.1,18.7,52.5,35.3,88.2,49.9c35.7,14.6,76.4,21.8,122,21.8c28.6,0,54.4-4.1,77.5-12.4
				c23.1-8.2,42.7-19.9,58.9-35c16.2-15.1,28.7-33.5,37.5-55.2c8.8-21.7,13.2-46,13.2-72.9C1728.8,376.7,1702.1,335.2,1648.9,300"/>
		</g>
		<g>
			<rect x="1808" y="13.2" class="st3" width="98.9" height="576.1"/>
		</g>
		<g>
			<path class="st3" d="M2322.4,300c-12.1-8.2-24.3-15.4-36.7-21.4s-23.8-11.2-34.2-15.7c-10.4-4.4-19.5-7.7-27.2-9.9
				c-7.7-2.2-12.9-3.8-15.6-4.9l-9.9-2.5c-9.9-2.7-20.6-5.8-32.2-9c-11.5-3.3-22.5-7.7-33-13.2c-12.7-6.6-22.5-14-29.7-22.3
				c-9.9-10.4-14.8-23.1-14.8-37.9c0-24.2,12.1-43.7,36.3-58.5c8.2-4.4,17.9-8,28.8-10.7c11-2.7,22-4.1,33-4.1
				c25.3,0,49.4,5.5,72.5,16.5c15.4,7.7,30.5,19,45.3,33.8l70.1-70.9c-4.4-3.8-9.5-8.1-15.2-12.8c-5.8-4.7-12.8-9.5-21-14.4
				c-15.9-9.3-37.4-18.7-64.3-28c-26.9-9.3-60.2-14-99.7-14c-21.4,0-43.3,3-65.5,9.1c-22.3,6-42.4,16.1-60.6,30.1
				c-18.1,14-32.8,32.1-44.1,54.4c-11.3,22.3-16.9,49.6-16.9,82c0,48.9,25,90.1,75,123.6c21.4,14.3,43,25.6,64.7,33.8
				c21.7,8.2,38.3,14,49.9,17.3c2.2,1.1,3.8,1.7,4.9,1.7c1.7,1.1,3.6,1.8,5.8,2.1c2.2,0.3,4.7,1,7.4,2c8.8,2.8,18.7,5.8,29.6,9.1
				c11,3.3,21.4,7.7,31.3,13.2c12.1,5.5,22,12.7,29.7,21.4c9.9,11,14.8,23.4,14.8,37.1c0,22.5-9.4,40.7-28,54.4
				c-8.8,6-19.1,10.9-30.9,14.4s-24.9,5.4-39.1,5.4c-7.7,0-17.6-0.8-29.7-2.5c-12.1-1.7-25-5.2-38.7-10.7
				c-22.5-8.8-42.9-21.4-61-37.9l-68.4,68.4c23.1,18.7,52.5,35.3,88.2,49.9c35.7,14.6,76.4,21.8,122,21.8c28.6,0,54.4-4.1,77.5-12.4
				s42.7-19.9,58.9-35c16.2-15.1,28.7-33.5,37.5-55.2c8.8-21.7,13.2-46,13.2-72.9C2402.3,376.7,2375.7,335.2,2322.4,300"/>
		</g>
	</g>
</g>
</svg>
