<svg class="h-xl w-auto" width="138" height="20" viewBox="0 0 138 20" fill="none" xmlns="http://www.w3.org/2000/svg">
<path d="M97.4599 4.86604C96.3164 4.80649 95.1752 5.0212 94.1314 5.49226C93.0877 5.96333 92.1718 6.67709 91.4599 7.57404H91.3909V5.51104H89.1909V19.222H91.3909V11.934C91.3909 9.04404 93.8329 6.97504 97.1719 6.97504C100.261 6.97504 101.459 9.04704 101.459 11.595V19.224H103.633V10.924C103.632 6.70404 100.817 4.86604 97.4599 4.86604Z" fill="black"></path>
<path d="M65.9209 5.13203C64.9576 5.09325 64.0006 5.30349 63.1423 5.74246C62.284 6.18144 61.5533 6.83431 61.0209 7.63803H60.9649C60.6107 6.83455 60.0149 6.16143 59.2604 5.71229C58.5058 5.26315 57.6301 5.06033 56.7549 5.13203C55.8964 5.0884 55.0397 5.24827 54.2548 5.59862C53.4698 5.94896 52.7787 6.47986 52.2379 7.14803H52.1849V5.50803H50.0349V19.22H52.1849V10.665C52.1849 8.54103 53.7979 7.18003 56.2179 7.18003C56.6236 7.12802 57.0358 7.16994 57.4227 7.30254C57.8096 7.43515 58.1608 7.6549 58.4493 7.94483C58.7378 8.23475 58.9558 8.5871 59.0864 8.97466C59.2171 9.36222 59.257 9.77462 59.2029 10.18V19.214H61.3549V10.665C61.3549 8.54103 62.9679 7.18003 65.3879 7.18003C65.7936 7.12802 66.2058 7.16994 66.5927 7.30254C66.9796 7.43515 67.3308 7.6549 67.6193 7.94483C67.9078 8.23475 68.1258 8.5871 68.2564 8.97466C68.3871 9.36222 68.427 9.77462 68.3729 10.18V19.214H70.5229V9.64903C70.5179 6.50403 68.4209 5.13203 65.9209 5.13203Z" fill="black"></path>
<path d="M25.101 4.86604C23.9575 4.80649 22.8163 5.0212 21.7726 5.49226C20.7288 5.96333 19.8129 6.67709 19.101 7.57404H19.032V5.51104H16.832V19.222H19.032V11.934C19.032 9.04404 21.474 6.97504 24.813 6.97504C27.902 6.97504 29.1 9.04704 29.1 11.595V19.224H31.274V10.924C31.273 6.70404 28.458 4.86604 25.101 4.86604Z" fill="black"></path>
<path d="M79.856 4.87195C78.3726 4.87195 76.9226 5.31182 75.6892 6.13593C74.4558 6.96004 73.4945 8.13138 72.9269 9.50182C72.3592 10.8723 72.2107 12.3803 72.5001 13.8351C72.7895 15.29 73.5038 16.6264 74.5527 17.6752C75.6016 18.7241 76.9379 19.4384 78.3928 19.7278C79.8476 20.0172 81.3556 19.8687 82.7261 19.301C84.0965 18.7334 85.2679 17.7721 86.092 16.5387C86.9161 15.3054 87.356 13.8553 87.356 12.3719C87.356 10.3828 86.5658 8.47517 85.1593 7.06865C83.7527 5.66212 81.8451 4.87195 79.856 4.87195ZM79.856 17.7979C78.4161 17.8092 77.0307 17.248 76.0046 16.2379C74.9785 15.2277 74.3957 13.8513 74.3845 12.4114C74.3732 10.9716 74.9344 9.58622 75.9445 8.56012C76.9547 7.53401 78.3311 6.95122 79.771 6.93995V6.97495H79.944V6.93995C81.3838 6.95149 82.7601 7.53453 83.7701 8.56082C84.7801 9.58712 85.341 10.9726 85.3295 12.4124C85.3179 13.8523 84.7349 15.2286 83.7086 16.2386C82.6823 17.2486 81.2958 17.8095 79.856 17.7979Z" fill="black"></path>
<path d="M40.6899 4.87195C39.2066 4.87195 37.7565 5.31182 36.5232 6.13593C35.2898 6.96004 34.3285 8.13138 33.7608 9.50182C33.1932 10.8723 33.0447 12.3803 33.3341 13.8351C33.6234 15.29 34.3378 16.6264 35.3866 17.6752C36.4355 18.7241 37.7719 19.4384 39.2268 19.7278C40.6816 20.0172 42.1896 19.8687 43.5601 19.301C44.9305 18.7334 46.1019 17.7721 46.926 16.5387C47.7501 15.3054 48.1899 13.8553 48.1899 12.3719C48.1899 10.3828 47.3998 8.47517 45.9932 7.06865C44.5867 5.66212 42.6791 4.87195 40.6899 4.87195ZM40.6899 17.7979C39.2501 17.8094 37.8647 17.2483 36.8385 16.2382C35.8123 15.2282 35.2293 13.8518 35.2179 12.4119C35.2065 10.9721 35.7676 9.58667 36.7777 8.56047C37.7877 7.53427 39.1641 6.95135 40.6039 6.93995V6.97495H40.7769V6.93995C42.2168 6.95149 43.5931 7.53453 44.6031 8.56082C45.6131 9.58712 46.174 10.9726 46.1624 12.4124C46.1509 13.8523 45.5679 15.2286 44.5416 16.2386C43.5153 17.2486 42.1298 17.8095 40.6899 17.7979Z" fill="black"></path>
<path d="M7.5 4.87195C6.01664 4.87195 4.5666 5.31182 3.33323 6.13593C2.09986 6.96004 1.13856 8.13138 0.570907 9.50182C0.00324965 10.8723 -0.145275 12.3803 0.144114 13.8351C0.433503 15.29 1.14781 16.6264 2.1967 17.6752C3.2456 18.7241 4.58197 19.4384 6.03683 19.7278C7.49168 20.0172 8.99968 19.8687 10.3701 19.301C11.7406 18.7334 12.9119 17.7721 13.736 16.5387C14.5601 15.3054 15 13.8553 15 12.3719C15 10.3828 14.2098 8.47517 12.8033 7.06865C11.3968 5.66212 9.48913 4.87195 7.5 4.87195ZM7.5 17.7979C6.06014 17.81 4.67446 17.2496 3.64779 16.24C2.62113 15.2304 2.03757 13.8543 2.0255 12.4144C2.01344 10.9746 2.57385 9.58891 3.58345 8.56224C4.59305 7.53557 5.96914 6.95202 7.409 6.93995V6.97495H7.582V6.93995C9.02186 6.95082 10.3984 7.53323 11.4089 8.55906C12.4193 9.58488 12.9809 10.9701 12.97 12.4099C12.9591 13.8498 12.3767 15.2264 11.3509 16.2368C10.3251 17.2473 8.93986 17.8088 7.5 17.7979Z" fill="black"></path>
<path d="M118.415 7.161H118.362C118.106 6.89623 117.832 6.65026 117.541 6.425C117.441 6.351 117.348 6.279 117.249 6.211H117.243C117.143 6.143 117.043 6.078 116.943 6.011L116.932 6C116.832 5.94 116.732 5.881 116.632 5.825L116.608 5.812C116.508 5.757 116.408 5.706 116.308 5.656L116.274 5.638C116.174 5.591 116.081 5.545 115.982 5.502L115.935 5.48C115.841 5.439 115.744 5.4 115.647 5.363L115.586 5.339C115.494 5.305 115.399 5.273 115.305 5.239L115.23 5.214C115.139 5.186 115.048 5.15933 114.956 5.134C114.926 5.125 114.896 5.116 114.866 5.109C114.778 5.085 114.689 5.066 114.599 5.046L114.499 5.022C114.414 5.004 114.325 4.99 114.239 4.975C114.2 4.969 114.162 4.96 114.124 4.954C114.039 4.941 113.951 4.93 113.864 4.92C113.823 4.92 113.784 4.908 113.744 4.905C113.653 4.896 113.561 4.89 113.469 4.883L113.359 4.874C113.229 4.867 113.1 4.864 112.969 4.864C111.964 4.83116 110.963 5.00075 110.025 5.36268C109.086 5.72461 108.231 6.27149 107.508 6.9708C106.786 7.67011 106.211 8.50758 105.819 9.43339C105.426 10.3592 105.224 11.3545 105.224 12.36C105.224 13.3655 105.426 14.3608 105.819 15.2866C106.211 16.2124 106.786 17.0499 107.508 17.7492C108.231 18.4485 109.086 18.9954 110.025 19.3573C110.963 19.7192 111.964 19.8888 112.969 19.856C113.1 19.856 113.229 19.856 113.359 19.846C113.396 19.846 113.432 19.84 113.469 19.837C113.561 19.831 113.654 19.825 113.744 19.815L113.864 19.8C113.951 19.79 114.039 19.779 114.125 19.766C114.164 19.76 114.2 19.753 114.239 19.745C114.325 19.73 114.414 19.716 114.501 19.696L114.601 19.672C114.69 19.653 114.78 19.632 114.868 19.609C114.897 19.602 114.927 19.591 114.957 19.584C115.048 19.5587 115.14 19.532 115.231 19.504C115.257 19.497 115.282 19.486 115.306 19.479C115.4 19.448 115.495 19.416 115.588 19.379L115.649 19.355C115.749 19.318 115.842 19.28 115.936 19.239C115.953 19.232 115.967 19.224 115.984 19.218C116.084 19.175 116.184 19.13 116.277 19.082L116.311 19.064C116.411 19.014 116.511 18.964 116.611 18.908L116.633 18.895C116.733 18.839 116.833 18.78 116.933 18.718L116.946 18.709C117.046 18.646 117.146 18.581 117.246 18.509H117.252C117.352 18.44 117.452 18.367 117.546 18.294C117.838 18.0689 118.112 17.8229 118.368 17.558H118.422V19.208H120.596V0H118.422V7.161H118.415ZM112.972 17.8C111.898 17.8 110.848 17.4815 109.955 16.8849C109.062 16.2882 108.366 15.4402 107.955 14.448C107.544 13.4558 107.437 12.364 107.646 11.3107C107.856 10.2573 108.373 9.28981 109.132 8.53041C109.892 7.77101 110.859 7.25385 111.913 7.04434C112.966 6.83482 114.058 6.94235 115.05 7.35333C116.042 7.76432 116.89 8.46029 117.487 9.35325C118.084 10.2462 118.402 11.296 118.402 12.37C118.402 13.8101 117.83 15.1913 116.812 16.2096C115.793 17.2279 114.412 17.8 112.972 17.8Z" fill="black"></path>
<path d="M129.975 4.87195C128.492 4.87195 127.042 5.31182 125.808 6.13593C124.575 6.96004 123.614 8.13138 123.046 9.50182C122.478 10.8723 122.33 12.3803 122.619 13.8351C122.909 15.29 123.623 16.6264 124.672 17.6752C125.721 18.7241 127.057 19.4384 128.512 19.7278C129.967 20.0172 131.475 19.8687 132.845 19.301C134.216 18.7334 135.387 17.7721 136.211 16.5387C137.035 15.3054 137.475 13.8553 137.475 12.3719C137.475 10.3828 136.685 8.47517 135.278 7.06865C133.872 5.66212 131.964 4.87195 129.975 4.87195ZM129.975 17.7979C129.262 17.8035 128.555 17.6686 127.894 17.401C127.233 17.1333 126.632 16.7381 126.124 16.2379C125.616 15.7377 125.211 15.1423 124.933 14.4858C124.655 13.8293 124.509 13.1244 124.504 12.4114C124.498 11.6985 124.633 10.9914 124.901 10.3306C125.168 9.66981 125.563 9.06819 126.064 8.56012C126.564 8.05204 127.159 7.64746 127.816 7.36947C128.472 7.09148 129.177 6.94553 129.89 6.93995V6.97495H130.063V6.93995C131.503 6.95149 132.879 7.53453 133.889 8.56082C134.899 9.58712 135.46 10.9726 135.449 12.4124C135.437 13.8523 134.854 15.2286 133.828 16.2386C132.801 17.2486 131.415 17.8095 129.975 17.7979Z" fill="black"></path>
</svg>